# xmcd
# Track frame offsets:
# 150
# 13177
# 26920
# 39498
# 56594
# 66749
# 82045
# 99414
# 118420
# 133786
# 151754
# 163551
# 176057
# 192892
# 210014
# 220806
#
# Disc length: 3077 seconds
# Revision: 2
# Processed by: cddbd v1.5.2PL0 Copyright (c) Steve Scherf et al.
# Submitted via: VisiTrax 2.11.3.279 - For more info visit www.synapsa.com
#
DISCID=e30c0310
DTITLE=Johnny Cash - The Best Of The Johnny Cash TV Show
DYEAR=2007
DGENRE=Country
TTITLE0=Johnny Cash - The Johnny Cash Show Open/I Walk The Line
TTITLE1=Johnny Cash - Flesh And Blood
TTITLE2=Tammy Wynette - Stand By Your Man
TTITLE3=George Jones - Medley: She Thinks I Still Care/Love Bug/The Race Is On
TTITLE4=Johnny Cash And Lynn Anderson - I've Been Everywhere
TTITLE5=Bobby Bare - Detroit City
TTITLE6=Ray Charles - Ring Of Fire
TTITLE7=Derek And The Dominos - It's Too Late
TTITLE8=Kris Kristofferson - Loving Her Was Easier (Than Anything I'll Ever D
TTITLE8=o Again)
TTITLE9=Roy Orbison - Medley: Only The Lonely/Oh, Pretty Woman
TTITLE10=Johnny Cash With The Carter Family And The Statler Brothers - Belshazz
TTITLE10=ar
TTITLE11=Waylon Jennings - Brown Eyed Handsome Man
TTITLE12=Johnny Cash And Joni Mitchell - Girl From The North Country
TTITLE13=James Taylor - Fire And Rain
TTITLE14=Johnny Cash, The Carter Family, The Statler Brothers, Carl Perkins An
TTITLE14=d The Tennessee Three - Daddy Sang Bass
TTITLE15=Johnny Cash - Closing Monologue/I Walk The Line (Reprise)
EXTD=Columbia - Legacy
EXTT0=
EXTT1=
EXTT2=
EXTT3=
EXTT4=
EXTT5=
EXTT6=
EXTT7=
EXTT8=
EXTT9=
EXTT10=
EXTT11=
EXTT12=
EXTT13=
EXTT14=
EXTT15=
PLAYORDER=
